<?xml version="1.0" encoding="utf-8"?>
<!-- Generator: Adobe Illustrator 22.0.1, SVG Export Plug-In . SVG Version: 6.00 Build 0)  -->
<svg version="1.1" id="레이어_1" xmlns="http://www.w3.org/2000/svg" xmlns:xlink="http://www.w3.org/1999/xlink" x="0px"
	 y="0px" viewBox="0 0 500 120" style="enable-background:new 0 0 500 120;" xml:space="preserve">
<style type="text/css">
	.st0{display:none;}
	.st1{display:inline;fill:#6ECECC;}
	.st2{display:inline;fill:#8FD9D1;}
	.st3{display:inline;}
	.st4{fill:#EAEAEA;}
</style>
<g id="Layer_1" class="st0">
	<path class="st1" d="M204.8,61.7H192v-3.4h30v3.4h-12.8v2.5c3.2,0.2,5.7,0.8,7.4,1.8s2.6,2.3,2.6,3.7c0,1.6-1,3-3.1,4
		c-2.1,1.1-5.1,1.6-9,1.6s-6.9-0.5-9-1.6s-3.1-2.4-3.1-4.1c0-1.4,0.9-2.7,2.6-3.7s4.2-1.6,7.3-1.8L204.8,61.7L204.8,61.7z
		 M218.5,49.3v-3.4h-22.9v3.4h9c-0.3,0.5-0.8,1-1.4,1.5c-0.7,0.5-1.4,0.9-2.3,1.3c-1.2,0.6-2.5,1-3.8,1.4s-2.4,0.6-3.2,0.8l2.2,2.7
		c0.7-0.2,1.7-0.4,2.8-0.6c1.1-0.2,2.2-0.6,3.4-1.1c1.1-0.5,2.1-1,2.9-1.5c0.8-0.5,1.4-0.9,1.8-1.4c0.4,0.5,1,0.9,1.8,1.4
		s1.8,0.9,3,1.5c1.2,0.5,2.3,0.9,3.4,1.1c1.1,0.2,2,0.4,2.8,0.6l2.2-2.7c-0.8-0.2-1.9-0.4-3.2-0.8c-1.3-0.3-2.6-0.8-3.8-1.4
		c-0.9-0.4-1.6-0.8-2.3-1.3s-1.2-1-1.5-1.5H218.5z M212.4,68c-1.3-0.4-3.1-0.6-5.4-0.6c-2.3,0-4.1,0.2-5.4,0.6s-1.9,1-1.9,1.8
		c0,0.7,0.6,1.3,1.9,1.8c1.3,0.4,3.1,0.7,5.4,0.7c2.3,0,4.1-0.2,5.4-0.6c1.3-0.4,2-1,2-1.8C214.3,69,213.7,68.4,212.4,68z"/>
	<path class="st1" d="M242.1,68.7c-2.2,0.2-4.2,0.3-6.2,0.3l-7.5,0.1V56.5h11.1v-5.2h-11.1v-3.5h15V60h-11.1v5.7h5
		c1.4,0,3.2-0.1,5.2-0.3c2-0.2,3.5-0.3,4.5-0.5v3.4C245.9,68.4,244.3,68.6,242.1,68.7z M249.2,75V45h3.9v30H249.2z"/>
	<path class="st1" d="M277.8,62.3c-0.6-0.2-1.3-0.6-2.2-1.1c-0.9-0.5-1.8-1.1-2.6-1.8c-0.6-0.5-1.1-1-1.5-1.5
		c-0.5-0.5-0.9-1.1-1.3-1.7c-0.3,0.6-0.8,1.2-1.3,1.9c-0.5,0.6-1.1,1.3-1.9,2s-1.6,1.4-2.4,1.9s-1.5,1-2.2,1.3l-2.8-2.8
		c1-0.5,2-1.1,3.1-1.9c1-0.7,2-1.6,2.9-2.6c1-1.1,1.6-2.3,2-3.5s0.5-2.4,0.5-3.6v-3h4.2v3c0,1.2,0.2,2.4,0.5,3.5
		c0.4,1.1,1,2.2,1.8,3.1c0.9,0.9,1.8,1.7,2.8,2.4c1,0.6,1.9,1.1,2.8,1.4L277.8,62.3z M265.8,74.3V65h4v5.9h18.1v3.4H265.8z
		 M286.8,57.3v9.4h-3.9V45h3.9v8.7h4.1v3.6H286.8z"/>
</g>
<g id="레이어_2_1_" class="st0">
	<rect class="st2" width="500" height="120"/>
</g>
<g id="레이어_3" class="st0">
	<g class="st3">
		<path d="M179.4,66.7l-2.3,2.4c-1.3-0.6-2.8-1.8-4.4-3.6c-1.6-1.8-2.8-3.6-3.6-5.4c-0.5,1.7-1.6,3.5-3.3,5.4s-3.3,3.3-4.8,4.2
			l-2.7-2.1c3.2-1.7,5.4-4,6.8-6.7c1.4-2.7,2.1-5.9,2.1-9.6v-4.7h3.6v4.7c0,3.7,0.7,6.8,2.2,9.2C174.5,63,176.6,65.1,179.4,66.7z
			 M186.2,75h-3.4V58h-6.7v-3h6.7V45h3.4V75z"/>
		<path d="M205.8,60.1h-13.2v-2.7h29.9v2.7h-13.1v2.4h9.2v7.2H200V72h19.3v2.6h-22.9v-7.4h18.5V65h-18.5v-2.6h9.3L205.8,60.1
			L205.8,60.1z M216.1,54c-1.9,1-4.8,1.4-8.6,1.4s-6.6-0.5-8.5-1.4s-2.9-2.2-2.9-3.8c0-1.5,1-2.8,2.9-3.8s4.8-1.5,8.5-1.5
			c3.8,0,6.6,0.5,8.6,1.6c1.9,1,2.9,2.3,2.9,3.8C218.9,51.7,218,53,216.1,54z M213.1,48.1c-1.4-0.6-3.2-0.8-5.6-0.8
			c-2.4,0-4.3,0.3-5.6,0.8c-1.4,0.5-2,1.2-2,2.1c0,0.8,0.7,1.5,2.1,2.1c1.4,0.6,3.2,0.9,5.6,0.9c2.4,0,4.2-0.3,5.6-0.8
			c1.4-0.6,2.1-1.2,2.1-2C215.2,49.3,214.5,48.6,213.1,48.1z"/>
		<path d="M260.2,64.8V75h-3.4V64.8h-13.3v-2.9h29.9v2.9H260.2z M267.1,56.6c-2,1.2-4.9,1.9-8.6,1.9c-3.7,0-6.6-0.6-8.6-1.9
			c-2.1-1.2-3.1-2.8-3.1-4.8c0-1.9,1-3.5,3.1-4.7s4.9-1.9,8.6-1.9s6.6,0.6,8.6,1.9s3,2.8,3,4.7C270.1,53.8,269.1,55.4,267.1,56.6z
			 M252.7,49c-1.5,0.7-2.2,1.7-2.2,2.8c0,1.2,0.8,2.1,2.3,2.8s3.4,1.1,5.8,1.1c2.3,0,4.2-0.4,5.7-1.1c1.5-0.7,2.3-1.6,2.3-2.8
			s-0.7-2.1-2.2-2.9c-1.5-0.7-3.4-1.1-5.8-1.1C256.1,47.9,254.1,48.3,252.7,49z"/>
		<path d="M301.4,50v-5h3.4v21.7h-3.4v-8.5h-6.9v3.3h-14.6V47h14.6v3H301.4z M291,49.9h-7.8v8.7h7.8V49.9z M283.4,74.3v-9.6h3.4v6.7
			h18.7v2.9H283.4z M301.4,55.5v-2.9h-6.9v2.9H301.4z"/>
		<path d="M331.6,60.1l-2.2,2.4c-1.5-0.7-3-1.7-4.6-3.2s-2.7-2.9-3.3-4.3c-0.6,1.6-1.6,3.2-3,4.6c-1.4,1.4-3.1,2.6-4.9,3.6l-2.4-2.2
			c3.2-1.6,5.5-3.5,6.7-5.6s1.8-4.4,1.8-7.1v-2.4h3.6v2.4c0,2.4,0.7,4.7,2,6.7C326.7,57.1,328.8,58.8,331.6,60.1z M339.1,74.3h-21.6
			V65h3.4v6.5h18.2V74.3z M334.7,45h3.4v8.7h4.3v2.9h-4.3v10.1h-3.4V45z"/>
	</g>
</g>
<g id="레이어_4" class="st0">
	<g class="st3">
		<path d="M123.3,58.9c-2,0.2-4.1,0.4-6.3,0.4l-7.4,0.1V46.3h3.4v10.3l4-0.1c2,0,4-0.2,6-0.4s3.6-0.4,4.7-0.7v2.8
			C126.7,58.5,125.3,58.7,123.3,58.9z M112.7,74.6V63.1h20.8v11.5H112.7z M130,66h-13.8v5.8H130V66z M133.4,45v6.5h4.3v2.9h-4.3v7.3
			H130V45H133.4z"/>
		<path d="M142.6,52.5v-2.7h18.9v2.7H142.6z M146.1,62.8c-1.5-1-2.2-2.2-2.2-3.6c0-1.5,0.7-2.7,2.2-3.6s3.5-1.5,6-1.5
			c2.6,0,4.6,0.5,6,1.5s2.1,2.2,2.1,3.6c0,1.4-0.7,2.6-2.2,3.6c-1.4,1-3.5,1.5-6,1.5C149.5,64.4,147.6,63.8,146.1,62.8z M146.9,74.3
			V66h3.6v5.4h18.2v2.8L146.9,74.3L146.9,74.3z M147,47.6v-2.7h10v2.7H147z M155.4,57.2c-0.7-0.5-1.9-0.7-3.3-0.7
			c-1.5,0-2.6,0.3-3.3,0.7c-0.8,0.5-1.1,1.1-1.1,1.9c0,0.7,0.4,1.4,1.1,1.9c0.7,0.5,1.9,0.7,3.4,0.7s2.6-0.2,3.3-0.7
			s1.1-1.1,1.1-1.9S156.2,57.7,155.4,57.2z M167.8,56.8v10.4h-3.4V45h3.4v8.8h4.3v3H167.8z"/>
		<path d="M195.6,60.1l-2.2,2.4c-1.5-0.7-3-1.7-4.6-3.2s-2.7-2.9-3.3-4.3c-0.6,1.6-1.6,3.2-3,4.6c-1.4,1.4-3.1,2.6-4.9,3.6l-2.4-2.2
			c3.2-1.6,5.5-3.5,6.7-5.6s1.8-4.4,1.8-7.1v-2.4h3.6v2.4c0,2.4,0.7,4.7,2,6.7C190.7,57.1,192.8,58.8,195.6,60.1z M203.1,74.3h-21.6
			V65h3.4v6.5h18.2L203.1,74.3L203.1,74.3z M198.7,45h3.4v8.7h4.3v2.9h-4.3v10.1h-3.4V45z"/>
		<path d="M230,58.6l-2,2.6c-1.6-0.7-3.2-1.6-4.7-3c-1.5-1.3-2.6-2.6-3.3-3.8c-0.6,1.5-1.7,2.9-3.3,4.4s-3.1,2.6-4.6,3.3l-2.5-2.2
			c3.7-1.7,6.1-3.6,7.1-5.9c1-2.2,1.5-4.1,1.5-5.5v-2.6h3.6v2.6c0,1.3,0.5,3,1.5,5.1C224.2,55.6,226.5,57.3,230,58.6z M237.8,69.5
			c0,1.7-1,3.2-2.9,4.3s-4.7,1.7-8.4,1.7s-6.5-0.6-8.4-1.7s-2.9-2.6-2.9-4.3s1-3.2,2.9-4.3c1.9-1.1,4.8-1.7,8.4-1.7
			c3.7,0,6.5,0.6,8.4,1.7S237.8,67.7,237.8,69.5z M234.1,69.5c0-1-0.7-1.8-2.1-2.4c-1.4-0.6-3.2-0.9-5.5-0.9s-4.2,0.3-5.6,0.9
			c-1.4,0.6-2.1,1.4-2.1,2.4s0.7,1.8,2.1,2.4c1.4,0.6,3.2,0.9,5.6,0.9c2.3,0,4.1-0.3,5.5-0.9S234.1,70.5,234.1,69.5z M237.3,62.9
			h-3.4V54h-6.4v-3h6.4v-6h3.4V62.9z"/>
		<path d="M290.5,59.8h-13.7v5.5h9.9V75h-3.5v-6.8H264v-2.9h9.1v-5.5h-12.6v-2.9h21.4c0.2-0.7,0.4-1.8,0.7-3.4
			c0.3-1.6,0.5-3.1,0.7-4.5H264v-2.9h23.2c0,0.9-0.2,2.5-0.6,4.9s-0.8,4.3-1.3,5.7h5.1L290.5,59.8L290.5,59.8z"/>
		<path d="M311.2,60.6c-2.1,0.1-4.1,0.2-6,0.3l-8.3,0.1v-8.4h11.8v-3.4h-11.8v-2.7h15.2v8.7h-11.8v3.1h6.2c1.5,0,3.2-0.1,5-0.3
			c1.9-0.1,3.4-0.3,4.4-0.4v2.7C314.8,60.3,313.3,60.5,311.2,60.6z M300.3,74.6V63.1h3.4v3.1h14.6v-3.1h3.4v11.5H300.3z M318.3,68.9
			h-14.6v2.9h14.6V68.9z M318.3,61.6V45h3.4v16.6H318.3z"/>
		<path d="M358.5,61.2h-29.9v-2.8h11.2v-5.7h3.5v5.7h15.3v2.8H358.5z M355.4,69.4c0,1.8-1,3.2-3.1,4.4c-2.1,1.1-5,1.7-8.8,1.7
			s-6.7-0.6-8.8-1.7c-2.1-1.1-3.1-2.6-3.1-4.4c0-1.7,1-3.2,3.1-4.3c2.1-1.1,5-1.7,8.8-1.7s6.8,0.6,8.8,1.7
			C354.4,66.2,355.4,67.6,355.4,69.4z M355.2,46.3c0,1.3-0.2,3-0.6,5.1s-0.8,3.9-1.3,5.2h-3.5c0-0.1,0.3-1,0.7-2.8
			c0.4-1.7,0.7-3.3,0.9-4.7H332v-2.9h23.2V46.3z M343.5,66.1c-2.4,0-4.4,0.3-5.9,0.9s-2.3,1.4-2.3,2.4c0,1.1,0.8,2,2.3,2.5
			c1.5,0.6,3.5,0.9,5.9,0.9s4.4-0.3,5.9-0.9s2.3-1.4,2.3-2.5c0-1-0.8-1.8-2.3-2.4S345.9,66.1,343.5,66.1z"/>
		<path d="M385.9,59.4c-1.2,0.2-3,0.4-5.4,0.6c-2.3,0.2-4.4,0.3-6.1,0.3v5.2H371v-5.2h-7.4v-2.8h9.5c2.1,0,4.5-0.1,7.4-0.4
			c2.8-0.2,4.6-0.4,5.4-0.6V59.4z M374.1,44.7c2.7,0,4.6,0.5,6,1.6c1.3,1.1,2,2.4,2,3.8c0,1.5-0.7,2.8-2,3.8
			c-1.3,1.1-3.3,1.6-5.9,1.6s-4.6-0.5-5.9-1.6s-2-2.4-2-3.8c0-1.5,0.7-2.7,2-3.8C369.5,45.3,371.5,44.7,374.1,44.7z M391.1,74.3
			h-22.5v-7.5h3.4v4.7h19.1V74.3z M374.1,47.3c-1.7,0-2.8,0.3-3.6,1c-0.7,0.7-1.1,1.3-1.1,1.9c0,0.5,0.4,1.1,1.1,1.8
			c0.7,0.6,1.9,1,3.6,1s2.9-0.3,3.6-1c0.7-0.6,1.1-1.2,1.1-1.8s-0.4-1.2-1.1-1.9S375.7,47.3,374.1,47.3z M390.4,68H387v-3.3h-7V62h7
			V45h3.4V68z"/>
	</g>
</g>
<g id="레이어_5" class="st0">
	<g class="st3">
		<path d="M159,55.4v-2.7h15.6v2.7H159z M171.9,68.4c-1.3,1.1-3,1.7-5,1.7c-1.9,0-3.5-0.6-4.9-1.7s-2.1-2.7-2.1-4.6s0.7-3.4,2.1-4.5
			c1.4-1.1,3-1.7,4.9-1.7c2,0,3.6,0.6,4.9,1.7c1.3,1.1,2,2.7,2,4.5C173.8,65.7,173.2,67.2,171.9,68.4z M162.7,50.1v-2.7h8.4v2.7
			H162.7z M164.3,66.4c0.7,0.6,1.6,1,2.7,1c1.1,0,2-0.3,2.7-1c0.7-0.6,1-1.5,1-2.6s-0.3-2-1-2.6c-0.6-0.7-1.5-1-2.7-1
			c-1.1,0-2,0.3-2.7,1s-1,1.5-1,2.7C163.2,64.9,163.6,65.8,164.3,66.4z M183.4,75V60.4h-3.3v13.2h-3.3V45.7h3.3v11.4h3.3V45h3.3v30
			H183.4z"/>
		<path d="M209.5,63v6H206v-6h-13.5v-2.9h29.9V63H209.5z M216.1,55.6c-1.9,1.2-4.8,1.8-8.6,1.8c-3.7,0-6.6-0.6-8.5-1.8
			s-2.9-2.7-2.9-4.5s1-3.3,2.9-4.5s4.8-1.8,8.5-1.8c3.8,0,6.6,0.6,8.6,1.8c1.9,1.2,2.9,2.7,2.9,4.5C218.9,52.9,218,54.4,216.1,55.6z
			 M196.4,74.3v-8.5h3.4v5.6h19.7v2.9H196.4z M201.8,53.6c1.4,0.7,3.3,1.1,5.7,1.1s4.2-0.3,5.7-1c1.4-0.7,2.1-1.5,2.1-2.5
			s-0.7-1.9-2.1-2.6c-1.4-0.7-3.3-1-5.7-1s-4.3,0.3-5.7,1s-2.1,1.5-2.1,2.5S200.4,52.9,201.8,53.6z"/>
		<path d="M239.6,68.1c-1.1,0.1-2.5,0.2-4.4,0.2l-6,0.1V48.7h10.7v2.9h-7.3v13.7h3.9c1.1,0,2.1-0.1,3.1-0.2s1.8-0.2,2.4-0.3v2.9
			C241.4,67.9,240.6,68,239.6,68.1z M250.8,75V59.4H247v14.2h-3.3V45.7h3.3v10.6h3.8V45h3.3v30H250.8z"/>
		<path d="M297.9,58.6l-2,2.6c-1.2-0.3-2.5-1-4-2.1s-2.8-2.3-3.8-3.7c-0.5,1.3-1.6,2.6-3.3,3.9c-1.7,1.3-3.2,2.2-4.5,2.6l-2.4-2.4
			c3.3-1.2,5.5-2.7,6.7-4.3s1.7-3.5,1.7-5.5H280v-2.9h16.3v2.9H290c0,2.1,0.6,3.8,1.9,5.3C293,56.5,295,57.7,297.9,58.6z
			 M305.1,69.7c0,1.7-1,3.1-2.9,4.1c-1.9,1.1-4.7,1.6-8.4,1.6c-3.7,0-6.5-0.5-8.4-1.6s-2.9-2.5-2.9-4.1s1-3.1,2.9-4.2
			s4.7-1.7,8.4-1.7c3.7,0,6.5,0.6,8.4,1.7C304.2,66.6,305.1,68,305.1,69.7z M301.4,69.7c0-1-0.7-1.7-2.1-2.3s-3.2-0.9-5.5-0.9
			s-4.1,0.3-5.5,0.9s-2.1,1.3-2.1,2.3c0,0.9,0.7,1.6,2.1,2.2s3.3,0.9,5.5,0.9c2.3,0,4.1-0.3,5.5-0.9S301.4,70.6,301.4,69.7z
			 M308.7,54.8h-4.4v8.4h-3.4V45h3.4v6.7h4.4V54.8z"/>
		<path d="M331.6,60.1l-2.2,2.4c-1.5-0.7-3-1.7-4.6-3.2s-2.7-2.9-3.3-4.3c-0.6,1.6-1.6,3.2-3,4.6c-1.4,1.4-3.1,2.6-4.9,3.6l-2.4-2.2
			c3.2-1.6,5.5-3.5,6.7-5.6s1.8-4.4,1.8-7.1v-2.4h3.6v2.4c0,2.4,0.7,4.7,2,6.7C326.7,57.1,328.8,58.8,331.6,60.1z M339.1,74.3h-21.6
			V65h3.4v6.5h18.2V74.3z M334.7,45h3.4v8.7h4.3v2.9h-4.3v10.1h-3.4V45z"/>
	</g>
</g>
<g id="레이어_6" class="st0">
	<g class="st3">
		<path d="M175.2,65.2V75h-3.4v-9.8h-13.3v-2.9h29.9v2.9H175.2z M162.4,59.1V45.7h3.4v3.6h15.4v-3.6h3.4v13.4H162.4z M181.2,52.2
			h-15.4v4h15.4V52.2z"/>
		<path d="M212.6,60.1l-2.2,2.4c-1.5-0.7-3-1.7-4.6-3.2s-2.7-2.9-3.3-4.3c-0.6,1.6-1.6,3.2-3,4.6c-1.4,1.4-3.1,2.6-4.9,3.6l-2.4-2.2
			c3.2-1.6,5.5-3.5,6.7-5.6s1.8-4.4,1.8-7.1v-2.4h3.6v2.4c0,2.4,0.7,4.7,2,6.7C207.7,57.1,209.8,58.8,212.6,60.1z M220.1,74.3h-21.6
			V65h3.4v6.5h18.2L220.1,74.3L220.1,74.3z M215.7,45h3.4v8.7h4.3v2.9h-4.3v10.1h-3.4V45z"/>
		<path d="M259.1,68.3c-0.6,0.1-1.3,0.2-2.1,0.2c-0.8,0.1-1.6,0.1-2.6,0.2c-1.8,0.1-3.6,0.1-5.5,0.1s-2.9,0-3,0V48.2h11.6v3h-8.2
			v5.6h7.9v2.9h-7.9V66l5.3-0.1c0.8,0,1.7-0.1,2.4-0.2c0.8-0.1,1.5-0.2,2.2-0.2v2.8H259.1z M270.9,75h-3.3V59.3h-3.5v14.3h-3.3V45.7
			h3.3v10.5h3.5V45h3.3V75z"/>
		<path d="M307.5,62.2h-29.9v-2.9h13.2v-4h3.5v4h13.2L307.5,62.2L307.5,62.2z M294.4,48.8c0.2,0.7,1.1,1.7,2.6,2.9s4.4,2.2,8.6,2.9
			l-2.1,2.5c-2.4-0.2-4.6-0.9-6.6-2s-3.4-2.1-4.4-3.1c-0.9,1.2-2.4,2.2-4.5,3.2s-4.3,1.6-6.5,1.9l-2.1-2.5c3.3-0.5,5.9-1.3,7.8-2.5
			c1.9-1.1,3-2.2,3.3-3.4h-9.6v-2.8h22.8v2.8L294.4,48.8L294.4,48.8z M304.4,69.8c0,1.7-1,3-3.1,4.1s-5,1.6-8.8,1.6
			s-6.7-0.5-8.8-1.6s-3.1-2.4-3.1-4.1s1-3,3.1-4.1c2.1-1,5-1.6,8.8-1.6s6.8,0.5,8.8,1.6C303.4,66.8,304.4,68.1,304.4,69.8z
			 M292.5,66.8c-2.4,0-4.3,0.3-5.8,0.8s-2.2,1.3-2.2,2.2c0,0.9,0.7,1.6,2.2,2.2s3.4,0.8,5.8,0.8s4.3-0.3,5.8-0.8s2.2-1.3,2.2-2.2
			c0-0.9-0.7-1.7-2.2-2.2S294.9,66.8,292.5,66.8z"/>
		<path d="M324.6,68.1c-1.1,0.1-2.5,0.2-4.4,0.2l-6,0.1V48.7h10.7v2.9h-7.3v13.7h3.9c1.1,0,2.1-0.1,3.1-0.2s1.8-0.2,2.4-0.3v2.9
			C326.4,67.9,325.6,68,324.6,68.1z M335.8,75V59.4H332v14.2h-3.3V45.7h3.3v10.6h3.8V45h3.3v30H335.8z"/>
	</g>
</g>
<g id="레이어_7" class="st0">
	<g class="st3">
		<path d="M171.8,60.1h-13.2v-2.7h29.9v2.7h-13.1v2.4h9.2v7.2H166V72h19.3v2.6h-22.9v-7.4h18.5V65h-18.5v-2.6h9.3L171.8,60.1
			L171.8,60.1z M182.1,54c-1.9,1-4.8,1.4-8.6,1.4s-6.6-0.5-8.5-1.4s-2.9-2.2-2.9-3.8c0-1.5,1-2.8,2.9-3.8s4.8-1.5,8.5-1.5
			c3.8,0,6.6,0.5,8.6,1.6c1.9,1,2.9,2.3,2.9,3.8C184.9,51.7,184,53,182.1,54z M179.1,48.1c-1.4-0.6-3.2-0.8-5.6-0.8
			c-2.4,0-4.3,0.3-5.6,0.8c-1.4,0.5-2,1.2-2,2.1c0,0.8,0.7,1.5,2.1,2.1c1.4,0.6,3.2,0.9,5.6,0.9c2.4,0,4.2-0.3,5.6-0.8
			c1.4-0.6,2.1-1.2,2.1-2C181.2,49.3,180.5,48.6,179.1,48.1z"/>
		<path d="M212.6,60.1l-2.2,2.4c-1.5-0.7-3-1.7-4.6-3.2s-2.7-2.9-3.3-4.3c-0.6,1.6-1.6,3.2-3,4.6c-1.4,1.4-3.1,2.6-4.9,3.6l-2.4-2.2
			c3.2-1.6,5.5-3.5,6.7-5.6s1.8-4.4,1.8-7.1v-2.4h3.6v2.4c0,2.4,0.7,4.7,2,6.7C207.7,57.1,209.8,58.8,212.6,60.1z M220.1,74.3h-21.6
			V65h3.4v6.5h18.2L220.1,74.3L220.1,74.3z M215.7,45h3.4v8.7h4.3v2.9h-4.3v10.1h-3.4V45z"/>
		<path d="M264,58.6l-2,2.6c-1.6-0.7-3.2-1.6-4.7-3c-1.5-1.3-2.6-2.6-3.3-3.8c-0.6,1.5-1.7,2.9-3.3,4.4s-3.1,2.6-4.6,3.3l-2.5-2.2
			c3.7-1.7,6.1-3.6,7.1-5.9c1-2.2,1.5-4.1,1.5-5.5v-2.6h3.6v2.6c0,1.3,0.5,3,1.5,5.1C258.2,55.6,260.5,57.3,264,58.6z M271.8,69.5
			c0,1.7-1,3.2-2.9,4.3s-4.7,1.7-8.4,1.7c-3.7,0-6.5-0.6-8.4-1.7s-2.9-2.6-2.9-4.3s1-3.2,2.9-4.3c1.9-1.1,4.8-1.7,8.4-1.7
			c3.7,0,6.5,0.6,8.4,1.7S271.8,67.7,271.8,69.5z M268.1,69.5c0-1-0.7-1.8-2.1-2.4s-3.2-0.9-5.5-0.9s-4.2,0.3-5.6,0.9
			s-2.1,1.4-2.1,2.4s0.7,1.8,2.1,2.4c1.4,0.6,3.2,0.9,5.6,0.9c2.3,0,4.1-0.3,5.5-0.9S268.1,70.5,268.1,69.5z M271.3,62.9h-3.4V54
			h-6.4v-3h6.4v-6h3.4V62.9z"/>
		<path d="M290.7,60.4h-13.2v-2.6h29.9v2.6h-13.2v2.5h9.3V70H285v2h19.3v2.6h-22.9v-7.1H300v-2h-18.6v-2.6h9.3L290.7,60.4
			L290.7,60.4z M281.4,55.8V45.5h3.4v2.8h15.4v-2.8h3.4v10.2L281.4,55.8L281.4,55.8z M300.2,50.7h-15.4v2.4h15.4V50.7z"/>
		<path d="M331.6,66.7l-2.3,2.4c-1.3-0.6-2.8-1.8-4.4-3.6c-1.6-1.8-2.8-3.6-3.6-5.4c-0.5,1.7-1.6,3.5-3.3,5.4s-3.3,3.3-4.8,4.2
			l-2.7-2.1c3.2-1.7,5.4-4,6.8-6.7s2.1-5.9,2.1-9.6v-4.7h3.6v4.7c0,3.7,0.7,6.8,2.2,9.2C326.6,63,328.8,65.1,331.6,66.7z M334.2,45
			h3.4v12h4.5v3h-4.5v15h-3.4V45z"/>
	</g>
</g>
<g id="레이어_8">
	<g>
		<path class="st4" d="M174.1,68.3c-0.6,0.1-1.3,0.2-2.1,0.2c-0.8,0.1-1.6,0.1-2.6,0.2c-1.8,0.1-3.6,0.1-5.5,0.1s-2.9,0-3,0V48.2
			h11.6v3h-8.2v5.6h7.9v2.9h-7.9V66l5.3-0.1c0.8,0,1.7-0.1,2.4-0.2c0.8-0.1,1.5-0.2,2.2-0.2L174.1,68.3L174.1,68.3z M185.9,75h-3.3
			V59.3h-3.5v14.3h-3.3V45.7h3.3v10.5h3.5V45h3.3V75z"/>
		<path class="st4" d="M207.8,59.1c-1.6,1.5-3.5,2.2-6,2.2c-2.4,0-4.4-0.7-5.9-2.2s-2.3-3.3-2.3-5.4s0.8-3.9,2.3-5.4
			c1.6-1.5,3.5-2.2,5.9-2.2s4.4,0.7,6,2.2s2.3,3.3,2.3,5.4S209.4,57.6,207.8,59.1z M205.4,50.4c-0.8-0.9-2-1.4-3.6-1.4
			c-1.5,0-2.7,0.5-3.5,1.4s-1.2,2-1.2,3.3s0.4,2.4,1.2,3.3s2,1.4,3.5,1.4s2.7-0.5,3.6-1.4c0.8-0.9,1.2-2,1.2-3.3
			C206.7,52.4,206.2,51.3,205.4,50.4z M197.9,74.3v-9.5h3.4v6.6h18.4v2.9H197.9z M218.8,45v7.5h4.3v3h-4.3v11.1h-3.4V45H218.8z"/>
		<path class="st4" d="M245.5,61.7V46.3h3.4v4.9h5.8v-4.9h3.4v15.3h-12.6V61.7z M267.8,75v-7.5h-19.3v-2.9h22.7V75H267.8z
			 M254.7,54.1h-5.8v4.7h5.8V54.1z M268,62.9V55h-3.5v7.8h-3.3V45.6h3.3V52h3.5v-7h3.3v17.8H268V62.9z"/>
		<path class="st4" d="M299.2,69.8c-1.3,0.2-3,0.3-5,0.4s-4.4,0.2-7.1,0.2H278v-2.9h8.8v-3.1c-1.8-0.2-3.2-0.8-4.3-1.6
			c-1.1-0.8-1.6-1.9-1.6-3.1c0-1.4,0.7-2.5,2.1-3.4s3.2-1.4,5.4-1.4c2.2,0,4.1,0.5,5.5,1.4s2.2,2.1,2.2,3.5c0,1.1-0.5,2.1-1.6,3
			c-1,0.9-2.4,1.4-4.1,1.6v3.1c1.7,0,3.3-0.1,4.8-0.2s2.8-0.3,4-0.4L299.2,69.8L299.2,69.8z M297.3,53.5h-18v-2.8h18V53.5z
			 M293,48.7h-9.5V46h9.5V48.7z M292.7,59.8c0-0.7-0.4-1.3-1.2-1.7c-0.8-0.5-1.8-0.7-3.1-0.7c-1.2,0-2.2,0.2-3,0.7s-1.2,1-1.2,1.7
			s0.4,1.2,1.2,1.7c0.8,0.4,1.8,0.6,3,0.6c1.3,0,2.3-0.2,3.1-0.6C292.3,61,292.7,60.5,292.7,59.8z M300.4,45h3.4v12.6h4.3v3h-4.3V75
			h-3.4V45z"/>
		<path class="st4" d="M331.6,60.1l-2.2,2.4c-1.5-0.7-3-1.7-4.6-3.2s-2.7-2.9-3.3-4.3c-0.6,1.6-1.6,3.2-3,4.6
			c-1.4,1.4-3.1,2.6-4.9,3.6l-2.4-2.2c3.2-1.6,5.5-3.5,6.7-5.6s1.8-4.4,1.8-7.1v-2.4h3.6v2.4c0,2.4,0.7,4.7,2,6.7
			C326.7,57.1,328.8,58.8,331.6,60.1z M339.1,74.3h-21.6V65h3.4v6.5h18.2V74.3z M334.7,45h3.4v8.7h4.3v2.9h-4.3v10.1h-3.4V45z"/>
	</g>
</g>
</svg>
