<?xml version="1.0" encoding="utf-8"?>
<!-- Generator: Adobe Illustrator 22.0.1, SVG Export Plug-In . SVG Version: 6.00 Build 0)  -->
<svg version="1.1" xmlns="http://www.w3.org/2000/svg" xmlns:xlink="http://www.w3.org/1999/xlink" x="0px" y="0px"
	 viewBox="0 0 500 120" style="enable-background:new 0 0 500 120;" xml:space="preserve">
<style type="text/css">
	.st0{display:none;}
	.st1{display:inline;fill:#1C1C1C;}
	.st2{display:inline;fill:#6ECECC;}
	.st3{display:inline;fill:#8FD9D1;}
	.st4{fill:#EAEAEA;}
	.st5{display:inline;}
	.st6{display:inline;fill:#FFFFFF;}
	.st7{font-family:'YDIYGO130-KSCpc-EUC-H';}
	.st8{font-size:34px;}
</style>
<g id="레이어_3_1_" class="st0">
	<path class="st1" d="M398.7,122.3h-359c-6.6,0-12-5.4-12-12V12c0-6.6,5.4-12,12-12h359c6.6,0,12,5.4,12,12v98.3
		C410.7,116.9,405.3,122.3,398.7,122.3z"/>
</g>
<g id="레이어_1">
	<g id="Layer_1" class="st0">
		<path class="st2" d="M204.8,61.7H192v-3.4h30v3.4h-12.8v2.5c3.2,0.2,5.7,0.8,7.4,1.8s2.6,2.3,2.6,3.7c0,1.6-1,3-3.1,4
			c-2.1,1.1-5.1,1.6-9,1.6s-6.9-0.5-9-1.6s-3.1-2.4-3.1-4.1c0-1.4,0.9-2.7,2.6-3.7s4.2-1.6,7.3-1.8L204.8,61.7L204.8,61.7z
			 M218.5,49.3v-3.4h-22.9v3.4h9c-0.3,0.5-0.8,1-1.4,1.5c-0.7,0.5-1.4,0.9-2.3,1.3c-1.2,0.6-2.5,1-3.8,1.4s-2.4,0.6-3.2,0.8l2.2,2.7
			c0.7-0.2,1.7-0.4,2.8-0.6c1.1-0.2,2.2-0.6,3.4-1.1c1.1-0.5,2.1-1,2.9-1.5c0.8-0.5,1.4-0.9,1.8-1.4c0.4,0.5,1,0.9,1.8,1.4
			s1.8,0.9,3,1.5c1.2,0.5,2.3,0.9,3.4,1.1c1.1,0.2,2,0.4,2.8,0.6l2.2-2.7c-0.8-0.2-1.9-0.4-3.2-0.8c-1.3-0.3-2.6-0.8-3.8-1.4
			c-0.9-0.4-1.6-0.8-2.3-1.3s-1.2-1-1.5-1.5H218.5z M212.4,68c-1.3-0.4-3.1-0.6-5.4-0.6c-2.3,0-4.1,0.2-5.4,0.6s-1.9,1-1.9,1.8
			c0,0.7,0.6,1.3,1.9,1.8c1.3,0.4,3.1,0.7,5.4,0.7c2.3,0,4.1-0.2,5.4-0.6c1.3-0.4,2-1,2-1.8C214.3,69,213.7,68.4,212.4,68z"/>
		<path class="st2" d="M242.1,68.7c-2.2,0.2-4.2,0.3-6.2,0.3l-7.5,0.1V56.5h11.1v-5.2h-11.1v-3.5h15V60h-11.1v5.7h5
			c1.4,0,3.2-0.1,5.2-0.3c2-0.2,3.5-0.3,4.5-0.5v3.4C245.9,68.4,244.3,68.6,242.1,68.7z M249.2,75V45h3.9v30H249.2z"/>
		<path class="st2" d="M277.8,62.3c-0.6-0.2-1.3-0.6-2.2-1.1c-0.9-0.5-1.8-1.1-2.6-1.8c-0.6-0.5-1.1-1-1.5-1.5
			c-0.5-0.5-0.9-1.1-1.3-1.7c-0.3,0.6-0.8,1.2-1.3,1.9c-0.5,0.6-1.1,1.3-1.9,2s-1.6,1.4-2.4,1.9s-1.5,1-2.2,1.3l-2.8-2.8
			c1-0.5,2-1.1,3.1-1.9c1-0.7,2-1.6,2.9-2.6c1-1.1,1.6-2.3,2-3.5s0.5-2.4,0.5-3.6v-3h4.2v3c0,1.2,0.2,2.4,0.5,3.5
			c0.4,1.1,1,2.2,1.8,3.1c0.9,0.9,1.8,1.7,2.8,2.4c1,0.6,1.9,1.1,2.8,1.4L277.8,62.3z M265.8,74.3V65h4v5.9h18.1v3.4H265.8z
			 M286.8,57.3v9.4h-3.9V45h3.9v8.7h4.1v3.6H286.8z"/>
	</g>
	<g id="레이어_2_1_" class="st0">
		<rect class="st3" width="500" height="120"/>
	</g>
	<g id="레이어_3">
		<g>
			<path class="st4" d="M179.4,66.7l-2.3,2.4c-1.3-0.6-2.8-1.8-4.4-3.6c-1.6-1.8-2.8-3.6-3.6-5.4c-0.5,1.7-1.6,3.5-3.3,5.4
				s-3.3,3.3-4.8,4.2l-2.7-2.1c3.2-1.7,5.4-4,6.8-6.7c1.4-2.7,2.1-5.9,2.1-9.6v-4.7h3.6v4.7c0,3.7,0.7,6.8,2.2,9.2
				C174.5,63,176.6,65.1,179.4,66.7z M186.2,75h-3.4V58h-6.7v-3h6.7V45h3.4V75z"/>
			<path class="st4" d="M205.8,60.1h-13.2v-2.7h29.9v2.7h-13.1v2.4h9.2v7.2H200V72h19.3v2.6h-22.9v-7.4h18.5V65h-18.5v-2.6h9.3
				L205.8,60.1L205.8,60.1z M216.1,54c-1.9,1-4.8,1.4-8.6,1.4s-6.6-0.5-8.5-1.4s-2.9-2.2-2.9-3.8c0-1.5,1-2.8,2.9-3.8
				s4.8-1.5,8.5-1.5c3.8,0,6.6,0.5,8.6,1.6c1.9,1,2.9,2.3,2.9,3.8C218.9,51.7,218,53,216.1,54z M213.1,48.1
				c-1.4-0.6-3.2-0.8-5.6-0.8c-2.4,0-4.3,0.3-5.6,0.8c-1.4,0.5-2,1.2-2,2.1c0,0.8,0.7,1.5,2.1,2.1c1.4,0.6,3.2,0.9,5.6,0.9
				c2.4,0,4.2-0.3,5.6-0.8c1.4-0.6,2.1-1.2,2.1-2C215.2,49.3,214.5,48.6,213.1,48.1z"/>
			<path class="st4" d="M260.2,64.8V75h-3.4V64.8h-13.3v-2.9h29.9v2.9H260.2z M267.1,56.6c-2,1.2-4.9,1.9-8.6,1.9
				c-3.7,0-6.6-0.6-8.6-1.9c-2.1-1.2-3.1-2.8-3.1-4.8c0-1.9,1-3.5,3.1-4.7s4.9-1.9,8.6-1.9s6.6,0.6,8.6,1.9s3,2.8,3,4.7
				C270.1,53.8,269.1,55.4,267.1,56.6z M252.7,49c-1.5,0.7-2.2,1.7-2.2,2.8c0,1.2,0.8,2.1,2.3,2.8s3.4,1.1,5.8,1.1
				c2.3,0,4.2-0.4,5.7-1.1c1.5-0.7,2.3-1.6,2.3-2.8s-0.7-2.1-2.2-2.9c-1.5-0.7-3.4-1.1-5.8-1.1C256.1,47.9,254.1,48.3,252.7,49z"/>
			<path class="st4" d="M301.4,50v-5h3.4v21.7h-3.4v-8.5h-6.9v3.3h-14.6V47h14.6v3H301.4z M291,49.9h-7.8v8.7h7.8V49.9z M283.4,74.3
				v-9.6h3.4v6.7h18.7v2.9H283.4z M301.4,55.5v-2.9h-6.9v2.9H301.4z"/>
			<path class="st4" d="M331.6,60.1l-2.2,2.4c-1.5-0.7-3-1.7-4.6-3.2s-2.7-2.9-3.3-4.3c-0.6,1.6-1.6,3.2-3,4.6
				c-1.4,1.4-3.1,2.6-4.9,3.6l-2.4-2.2c3.2-1.6,5.5-3.5,6.7-5.6s1.8-4.4,1.8-7.1v-2.4h3.6v2.4c0,2.4,0.7,4.7,2,6.7
				C326.7,57.1,328.8,58.8,331.6,60.1z M339.1,74.3h-21.6V65h3.4v6.5h18.2V74.3z M334.7,45h3.4v8.7h4.3v2.9h-4.3v10.1h-3.4V45z"/>
		</g>
	</g>
	<g id="레이어_4" class="st0">
		<g class="st5">
			<path d="M123.3,58.9c-2,0.2-4.1,0.4-6.3,0.4l-7.4,0.1V46.3h3.4v10.3l4-0.1c2,0,4-0.2,6-0.4s3.6-0.4,4.7-0.7v2.8
				C126.7,58.5,125.3,58.7,123.3,58.9z M112.7,74.6V63.1h20.8v11.5H112.7z M130,66h-13.8v5.8H130V66z M133.4,45v6.5h4.3v2.9h-4.3
				v7.3H130V45H133.4z"/>
			<path d="M142.6,52.5v-2.7h18.9v2.7H142.6z M146.1,62.8c-1.5-1-2.2-2.2-2.2-3.6c0-1.5,0.7-2.7,2.2-3.6s3.5-1.5,6-1.5
				c2.6,0,4.6,0.5,6,1.5s2.1,2.2,2.1,3.6c0,1.4-0.7,2.6-2.2,3.6c-1.4,1-3.5,1.5-6,1.5C149.5,64.4,147.6,63.8,146.1,62.8z
				 M146.9,74.3V66h3.6v5.4h18.2v2.8L146.9,74.3L146.9,74.3z M147,47.6v-2.7h10v2.7H147z M155.4,57.2c-0.7-0.5-1.9-0.7-3.3-0.7
				c-1.5,0-2.6,0.3-3.3,0.7c-0.8,0.5-1.1,1.1-1.1,1.9c0,0.7,0.4,1.4,1.1,1.9c0.7,0.5,1.9,0.7,3.4,0.7s2.6-0.2,3.3-0.7
				s1.1-1.1,1.1-1.9S156.2,57.7,155.4,57.2z M167.8,56.8v10.4h-3.4V45h3.4v8.8h4.3v3H167.8z"/>
			<path d="M195.6,60.1l-2.2,2.4c-1.5-0.7-3-1.7-4.6-3.2s-2.7-2.9-3.3-4.3c-0.6,1.6-1.6,3.2-3,4.6c-1.4,1.4-3.1,2.6-4.9,3.6
				l-2.4-2.2c3.2-1.6,5.5-3.5,6.7-5.6s1.8-4.4,1.8-7.1v-2.4h3.6v2.4c0,2.4,0.7,4.7,2,6.7C190.7,57.1,192.8,58.8,195.6,60.1z
				 M203.1,74.3h-21.6V65h3.4v6.5h18.2L203.1,74.3L203.1,74.3z M198.7,45h3.4v8.7h4.3v2.9h-4.3v10.1h-3.4V45z"/>
			<path d="M230,58.6l-2,2.6c-1.6-0.7-3.2-1.6-4.7-3c-1.5-1.3-2.6-2.6-3.3-3.8c-0.6,1.5-1.7,2.9-3.3,4.4s-3.1,2.6-4.6,3.3l-2.5-2.2
				c3.7-1.7,6.1-3.6,7.1-5.9c1-2.2,1.5-4.1,1.5-5.5v-2.6h3.6v2.6c0,1.3,0.5,3,1.5,5.1C224.2,55.6,226.5,57.3,230,58.6z M237.8,69.5
				c0,1.7-1,3.2-2.9,4.3s-4.7,1.7-8.4,1.7s-6.5-0.6-8.4-1.7s-2.9-2.6-2.9-4.3s1-3.2,2.9-4.3c1.9-1.1,4.8-1.7,8.4-1.7
				c3.7,0,6.5,0.6,8.4,1.7S237.8,67.7,237.8,69.5z M234.1,69.5c0-1-0.7-1.8-2.1-2.4c-1.4-0.6-3.2-0.9-5.5-0.9s-4.2,0.3-5.6,0.9
				c-1.4,0.6-2.1,1.4-2.1,2.4s0.7,1.8,2.1,2.4c1.4,0.6,3.2,0.9,5.6,0.9c2.3,0,4.1-0.3,5.5-0.9S234.1,70.5,234.1,69.5z M237.3,62.9
				h-3.4V54h-6.4v-3h6.4v-6h3.4V62.9z"/>
			<path d="M290.5,59.8h-13.7v5.5h9.9V75h-3.5v-6.8H264v-2.9h9.1v-5.5h-12.6v-2.9h21.4c0.2-0.7,0.4-1.8,0.7-3.4
				c0.3-1.6,0.5-3.1,0.7-4.5H264v-2.9h23.2c0,0.9-0.2,2.5-0.6,4.9s-0.8,4.3-1.3,5.7h5.1L290.5,59.8L290.5,59.8z"/>
			<path d="M311.2,60.6c-2.1,0.1-4.1,0.2-6,0.3l-8.3,0.1v-8.4h11.8v-3.4h-11.8v-2.7h15.2v8.7h-11.8v3.1h6.2c1.5,0,3.2-0.1,5-0.3
				c1.9-0.1,3.4-0.3,4.4-0.4v2.7C314.8,60.3,313.3,60.5,311.2,60.6z M300.3,74.6V63.1h3.4v3.1h14.6v-3.1h3.4v11.5H300.3z
				 M318.3,68.9h-14.6v2.9h14.6V68.9z M318.3,61.6V45h3.4v16.6H318.3z"/>
			<path d="M358.5,61.2h-29.9v-2.8h11.2v-5.7h3.5v5.7h15.3v2.8H358.5z M355.4,69.4c0,1.8-1,3.2-3.1,4.4c-2.1,1.1-5,1.7-8.8,1.7
				s-6.7-0.6-8.8-1.7c-2.1-1.1-3.1-2.6-3.1-4.4c0-1.7,1-3.2,3.1-4.3c2.1-1.1,5-1.7,8.8-1.7s6.8,0.6,8.8,1.7
				C354.4,66.2,355.4,67.6,355.4,69.4z M355.2,46.3c0,1.3-0.2,3-0.6,5.1s-0.8,3.9-1.3,5.2h-3.5c0-0.1,0.3-1,0.7-2.8
				c0.4-1.7,0.7-3.3,0.9-4.7H332v-2.9h23.2V46.3z M343.5,66.1c-2.4,0-4.4,0.3-5.9,0.9s-2.3,1.4-2.3,2.4c0,1.1,0.8,2,2.3,2.5
				c1.5,0.6,3.5,0.9,5.9,0.9s4.4-0.3,5.9-0.9s2.3-1.4,2.3-2.5c0-1-0.8-1.8-2.3-2.4S345.9,66.1,343.5,66.1z"/>
			<path d="M385.9,59.4c-1.2,0.2-3,0.4-5.4,0.6c-2.3,0.2-4.4,0.3-6.1,0.3v5.2H371v-5.2h-7.4v-2.8h9.5c2.1,0,4.5-0.1,7.4-0.4
				c2.8-0.2,4.6-0.4,5.4-0.6V59.4z M374.1,44.7c2.7,0,4.6,0.5,6,1.6c1.3,1.1,2,2.4,2,3.8c0,1.5-0.7,2.8-2,3.8
				c-1.3,1.1-3.3,1.6-5.9,1.6s-4.6-0.5-5.9-1.6s-2-2.4-2-3.8c0-1.5,0.7-2.7,2-3.8C369.5,45.3,371.5,44.7,374.1,44.7z M391.1,74.3
				h-22.5v-7.5h3.4v4.7h19.1V74.3z M374.1,47.3c-1.7,0-2.8,0.3-3.6,1c-0.7,0.7-1.1,1.3-1.1,1.9c0,0.5,0.4,1.1,1.1,1.8
				c0.7,0.6,1.9,1,3.6,1s2.9-0.3,3.6-1c0.7-0.6,1.1-1.2,1.1-1.8s-0.4-1.2-1.1-1.9S375.7,47.3,374.1,47.3z M390.4,68H387v-3.3h-7V62
				h7V45h3.4V68z"/>
		</g>
	</g>
	<g id="레이어_5" class="st0">
		<text transform="matrix(1 0 0 1 156.5 70.2002)" class="st6 st7 st8">서울 우면산</text>
	</g>
	<g id="레이어_6" class="st0">
		<text transform="matrix(1 0 0 1 156.5 70.2002)" class="st6 st7 st8">서울 우면산</text>
	</g>
	<g id="레이어_7" class="st0">
		<text transform="matrix(1 0 0 1 156.5 70.2002)" class="st6 st7 st8">서울 우면산</text>
	</g>
</g>
<g id="레이어_2">
</g>
</svg>
